<svg width="680" height="437" xmlns="http://www.w3.org/2000/svg">
<g transform="translate(0, 10)">
<g class="links" fill="none" stroke-opacity="0.4">
<path d="M5,18.330488346541365C171.25,18.330488346541365,171.25,8.330488346541337,337.5,8.330488346541337" stroke-width="6.660976693082731" style="stroke: rgb(3, 4, 94);">
</path>
<path d="M5,30.510257848844006C171.25,30.510257848844006,171.25,32.07253508505349,337.5,32.07253508505349" stroke-width="17.698562311522547" style="stroke: rgb(3, 4, 94);">
</path>
<path d="M5,44.577509720955966C171.25,44.577509720955966,171.25,63.32191442441805,337.5,63.32191442441805" stroke-width="10.435941432701375" style="stroke: rgb(3, 4, 94);">
</path>
<path d="M5,101.04569433729965C171.25,101.04569433729965,171.25,135.2489624486679,337.5,135.2489624486679" stroke-width="102.50042779998599" style="stroke: rgb(3, 4, 94);">
</path>
<path d="M5,163.07704685539736C171.25,163.07704685539736,171.25,12.442115311187447,337.5,12.442115311187447" stroke-width="1.5622772362094897" style="stroke: rgb(220, 47, 2);">
</path>
<path d="M5,167.44924920712845C171.25,167.44924920712845,171.25,44.51287997444109,337.5,44.51287997444109" stroke-width="7.182127467252652" style="stroke: rgb(220, 47, 2);">
</path>
<path d="M5,173.76974464470783C171.25,173.76974464470783,171.25,71.26931684472179,337.5,71.26931684472179" stroke-width="5.458863407906118" style="stroke: rgb(220, 47, 2);">
</path>
<path d="M5,289.2495881743304C171.25,289.2495881743304,171.25,299.2495881743305,337.5,299.2495881743305" stroke-width="225.50082365133912" style="stroke: rgb(220, 47, 2);">

</path>
<path d="M342.5,6.398058925746674C508.75,6.398058925746674,508.75,1.3980589257467588,675,1.3980589257467588" stroke-width="2.796117851493404" style="stroke: #023E8A;">
</path>
<path d="M342.5,9.72854727228804C508.75,9.72854727228804,508.75,47.94764943778203,675,47.94764943778203" stroke-width="3.864858841589328" style="stroke: #0077B6;">
</path>
<path d="M342.5,12.35985927016852C508.75,12.35985927016852,508.75,157.99479081437838,675,157.99479081437838" stroke-width="1.3977651541716343" style="stroke: #FAA307;">
</path>
<path d="M342.5,13.140997888273267C508.75,13.140997888273267,508.75,245.24290779312867,675,245.24290779312867" stroke-width="0.16451208203785525" style="stroke: #F48C06;">
</path>


<path d="M342.5,26.429476899579985C508.75,26.429476899579985,508.75,6.002340821781233,675,6.002340821781233" stroke-width="6.412445940575544" style="stroke: #023E8A;">
</path>
<path d="M342.5,35.27875805534126C508.75,35.27875805534126,508.75,55.523137044050195,675,55.523137044050195" stroke-width="11.286116370947004" style="stroke: #0077B6;">
</path>
<path d="M342.5,42.07604475925536C508.75,42.07604475925536,508.75,159.84790190990478,675,159.84790190990478" stroke-width="2.3084570368811903" style="stroke: #FAA307;">
</path>
<path d="M342.5,43.871576626068524C508.75,43.871576626068524,508.75,245.96646718252015,675,245.96646718252015" stroke-width="1.2826066967451357" style="stroke: #F48C06;">
</path>
<path d="M342.5,46.308411841254255C508.75,46.308411841254255,508.75,328.1816895372123,675,328.1816895372123" stroke-width="3.591063733626326" style="stroke: #E85D04;">
</path>

<path d="M342.5,59.54900608582488C508.75,59.54900608582488,508.75,10.653626169826522,675,10.653626169826522" stroke-width="2.8901247555150356" style="stroke: #023E8A;">
</path>
<path d="M342.5,64.76697680217556C508.75,64.76697680217556,508.75,64.93910356811688,675,64.93910356811688" stroke-width="7.545816677186338" style="stroke: #0077B6;">
</path>
<path d="M342.5,69.74405482697082C508.75,69.74405482697082,508.75,162.20630011454745,675,162.20630011454745" stroke-width="2.4083393724041735" style="stroke: #FAA307;">
</path>
<path d="M342.5,71.67060881626414C508.75,71.67060881626414,508.75,247.33015483398395,675,247.33015483398395" stroke-width="1.44476860618245" style="stroke: #F48C06;">
</path>
<path d="M342.5,73.1958708340151C508.75,73.1958708340151,508.75,330.7800991186852,675,330.7800991186852" stroke-width="1.6057554293194942" style="stroke: #E85D04;">
</path>

<path d="M342.5,95.95701428337658C508.75,95.95701428337658,508.75,24.05695428228571,675,24.05695428228571" stroke-width="23.916531469403342" style="stroke: #023E8A;">
</path>
<path d="M342.5,147.20722818336958C508.75,147.20722818336958,508.75,108.00396007200136,675,108.00396007200136" stroke-width="78.58389633058263" style="stroke: #0077B6;">
</path>
<path d="M342.5,222.37426732434096C508.75,222.37426732434096,508.75,199.28556077642963,675,199.28556077642963" stroke-width="71.75018195136016" style="stroke: #FAA307;">
</path>
<path d="M342.5,292.41616756668304C508.75,292.41616756668304,508.75,282.2193484037372,675,282.2193484037372" stroke-width="68.33361853332399" style="stroke: #F48C06;">
</path>
<path d="M342.5,369.29148841667256C508.75,369.29148841667256,508.75,374.29148841667245,675,374.29148841667245" stroke-width="85.41702316665499" style="stroke: #E85D04;">
</path>
</g>
<g class="nodes" font-family="Arial, Helvetica" font-size="10">
<g>
<rect x="0" y="15" height="137.29590823729262" width="5" fill="#000">
</rect>
<text x="11" y="83.64795411864631" dy="0.35em" text-anchor="start">Regularly</text>
</g>
<g>
<rect x="0" y="162.29590823729262" height="239.7040917627074" width="5" fill="#000">
</rect>
<text x="11" y="282.14795411864634" dy="0.35em" text-anchor="start">Not so regularly</text>
</g>
<g>
<rect x="337.5" y="4.999999999999972" height="8.223253929292241" width="5" fill="#000">
</rect>
<text x="331.5" y="9.111626964646092" dy="0.35em" text-anchor="end">Vegan</text>
</g>
<g>
<rect x="337.5" y="23.223253929292213" height="24.88068977877515" width="5" fill="#000">
</rect>
<text x="331.5" y="35.66359881867979" dy="0.35em" text-anchor="end">Vegetarian</text>
</g>
<g>
<rect x="337.5" y="58.10394370806736" height="15.894804840607549" width="5" fill="#000">
</rect>
<text x="331.5" y="66.05134612837114" dy="0.35em" text-anchor="end">Pescatarian</text>
</g>
<g>
<rect x="337.5" y="83.99874854867491" height="328.0012514513251" width="5" fill="#000">
</rect>
<text x="331.5" y="247.99937427433747" dy="0.35em" text-anchor="end">Meat-eater</text>
</g>
<g>
<rect x="675" y="5.684341886080802e-14" height="36.015220016987314" width="5" fill="#000">
</rect>
<text x="669" y="18.007610008493714" dy="0.35em" text-anchor="end">daily</text>
</g>
<g>
<rect x="675" y="46.01522001698737" height="101.2806882203052" width="5" fill="#000">
</rect>
<text x="669" y="96.65556412713997" dy="0.35em" text-anchor="end">weekly</text>
</g>
<g>
<rect x="675" y="157.29590823729256" height="77.86474351481718" width="5" fill="#000">
</rect>
<text x="669" y="196.22827999470115" dy="0.35em" text-anchor="end">monthly</text>
</g>
<g>
<rect x="675" y="245.16065175210974" height="71.2255059182894" width="5" fill="#000">
</rect>
<text x="669" y="280.77340471125444" dy="0.35em" text-anchor="end">less often</text>
</g>
<g>
<rect x="675" y="326.38615767039914" height="90.61384232960083" width="5" fill="#000">
</rect>
<text x="669" y="371.6930788351996" dy="0.35em" text-anchor="end">never</text>
</g>
</g>
</g>
</svg>